<svg width="132" height="185" viewBox="0 0 132 185" fill="none" xmlns="http://www.w3.org/2000/svg">
<path d="M65.9221 99.4523C74.4577 99.4523 81.3772 77.1892 81.3772 49.7262C81.3772 22.2632 74.4577 0 65.9221 0C57.3865 0 50.467 22.2632 50.467 49.7262C50.467 77.1892 57.3865 99.4523 65.9221 99.4523Z" fill="#FDFDFF"/>
<path d="M97.2822 75.8463C87.8788 85.2653 81.5573 97.3178 79.1543 110.409C92.2454 107.998 104.295 101.666 113.705 92.2514C123.115 82.8367 129.441 70.7842 131.844 57.6919C118.746 60.0894 106.69 66.4223 97.2822 75.8463Z" fill="#FDFDFF"/>
<path d="M0 57.6919C2.40358 70.7842 8.72975 82.8367 18.1397 92.2514C27.5497 101.666 39.5991 107.998 52.6901 110.409C50.2727 97.3223 43.9419 85.2773 34.5344 75.865C25.1268 66.4527 13.085 60.1159 0 57.6919Z" fill="#FDFDFF"/>
<path d="M105.486 130.654C119.21 130.654 130.336 127.194 130.336 122.926C130.336 118.658 119.21 115.199 105.486 115.199C91.7619 115.199 80.6362 118.658 80.6362 122.926C80.6362 127.194 91.7619 130.654 105.486 130.654Z" fill="#FDFDFF"/>
<path d="M26.3583 130.654C40.0825 130.654 51.2082 127.194 51.2082 122.926C51.2082 118.658 40.0825 115.199 26.3583 115.199C12.6341 115.199 1.50848 118.658 1.50848 122.926C1.50848 127.194 12.6341 130.654 26.3583 130.654Z" fill="#FDFDFF"/>
<path d="M84.4472 178.712C89.3406 173.789 92.0872 167.129 92.0872 160.188C92.0872 153.246 89.3406 146.586 84.4472 141.663L65.9223 123.138L47.3974 141.663C43.1922 146.705 41.0248 153.138 41.3212 159.697C41.6176 166.257 44.3562 172.468 48.9991 177.111C53.6419 181.754 59.8531 184.492 66.4124 184.789C72.9716 185.085 79.4046 182.918 84.4472 178.712Z" fill="#FDFDFF"/>
</svg>
